<svg width="53" height="53" viewBox="0 0 53 53" fill="none" xmlns="http://www.w3.org/2000/svg">
<path d="M29.0527 24.9473C28.5005 24.9473 28.0527 24.4995 28.0527 23.9473V6.94259C28.0527 6.9387 28.0559 6.93555 28.0598 6.93555C34.2338 6.93555 39.4414 11.1498 40.9588 16.8526C41.1182 17.4518 40.6339 18.0117 40.0138 18.0117C39.1229 18.0117 38.6533 19.0889 39.2833 19.7188L42.0448 22.4804C42.4354 22.8709 43.0685 22.8709 43.4591 22.4804L46.2206 19.7188C46.8506 19.0889 46.4044 18.0117 45.5135 18.0117H45.2253C44.7261 18.0117 44.3066 17.6424 44.2118 17.1523C42.746 9.57236 36.0614 3.83008 28.0598 3.83008C28.0559 3.83008 28.0527 3.82693 28.0527 3.82304V1C28.0527 0.447715 27.605 0 27.0527 0H1C0.447715 0 0 0.447715 0 1V27.0527C0 27.605 0.447715 28.0527 1 28.0527H23.9473C24.4995 28.0527 24.9473 28.5005 24.9473 29.0527V46.0574C24.9473 46.0613 24.9441 46.0645 24.9402 46.0645C18.6731 46.0645 13.4013 41.7223 11.9746 35.8885C11.8337 35.3122 12.2892 34.7812 12.8826 34.7812C13.744 34.7812 14.1754 33.7398 13.5663 33.1307L10.7481 30.3126C10.3576 29.9221 9.72443 29.9221 9.33391 30.3126L6.57234 33.0741C5.94238 33.7041 6.38854 34.7812 7.27945 34.7812H7.73518C8.23925 34.7812 8.66124 35.1576 8.75095 35.6536C10.1392 43.3294 16.8703 49.1699 24.9402 49.1699C24.9441 49.1699 24.9473 49.1731 24.9473 49.177V52C24.9473 52.5523 25.395 53 25.9473 53H52C52.5523 53 53 52.5523 53 52V25.9473C53 25.395 52.5523 24.9473 52 24.9473H29.0527ZM24.9473 23.9473C24.9473 24.4995 24.4995 24.9473 23.9473 24.9473H4.10547C3.55318 24.9473 3.10547 24.4995 3.10547 23.9473V4.10547C3.10547 3.55318 3.55318 3.10547 4.10547 3.10547H23.9473C24.4995 3.10547 24.9473 3.55318 24.9473 4.10547V23.9473ZM49.8945 48.8945C49.8945 49.4468 49.4468 49.8945 48.8945 49.8945H29.0527C28.5005 49.8945 28.0527 49.4468 28.0527 48.8945V29.0527C28.0527 28.5005 28.5005 28.0527 29.0527 28.0527H48.8945C49.4468 28.0527 49.8945 28.5005 49.8945 29.0527V48.8945Z" fill="#CDDD00"/>
<path d="M10.095 10.2682C9.94932 9.87652 9.57552 9.6167 9.15765 9.6167H8.74776C8.33035 9.6167 7.95685 9.87596 7.81089 10.267L5.53989 16.3516C5.29597 17.0051 5.77921 17.7013 6.47676 17.7013H6.65069C7.09157 17.7013 7.48042 17.4125 7.60794 16.9905L7.65666 16.8293C7.78418 16.4072 8.17304 16.1185 8.61392 16.1185H9.28611C9.72456 16.1185 10.1119 16.4041 10.2414 16.823L10.2952 16.9968C10.4248 17.4157 10.8121 17.7013 11.2505 17.7013H11.4201C12.1171 17.7013 12.6003 17.0061 12.3574 16.3528L10.095 10.2682ZM8.94055 14.6382C8.56906 14.6382 8.29983 14.2842 8.3991 13.9262C8.55227 13.3739 9.33706 13.3785 9.48373 13.9326C9.57809 14.289 9.3093 14.6382 8.94055 14.6382Z" fill="#CDDD00"/>
<path d="M22.1446 14.2681C22.1153 14.2314 22.0849 14.1959 22.0533 14.1615C21.776 13.8601 21.7167 13.1337 21.9169 12.7764C22.1105 12.4311 22.2072 12.0687 22.2072 11.689C22.2072 11.431 22.1635 11.1785 22.0763 10.9319C21.9889 10.6852 21.8656 10.4649 21.7062 10.2713C21.5468 10.0779 21.3532 9.92031 21.1255 9.79889C20.8978 9.67757 20.6433 9.6167 20.3626 9.6167H16.6713C16.119 9.6167 15.6713 10.0644 15.6713 10.6167V16.7012C15.6713 17.2535 16.119 17.7012 16.6713 17.7012H19.6452C20.0398 17.7012 20.4138 17.6613 20.7668 17.5816C21.1198 17.5019 21.429 17.3786 21.6948 17.2115C21.9605 17.0448 22.1693 16.8301 22.3211 16.5682C22.4729 16.3064 22.5488 15.9932 22.5488 15.6289C22.5488 15.0596 22.414 14.6059 22.1446 14.2681ZM17.8917 12.1274C17.8917 11.7846 18.1695 11.5068 18.5123 11.5068H19.4744C19.6185 11.5068 19.7438 11.5543 19.8502 11.6491C19.9564 11.7442 20.0096 11.9015 20.0096 12.1216C20.0096 12.3721 19.947 12.5392 19.8217 12.6227C19.6965 12.7063 19.5579 12.7479 19.4061 12.7479H18.5123C18.1695 12.7479 17.8917 12.4701 17.8917 12.1274ZM20.1064 15.6629C19.9811 15.7769 19.8274 15.8337 19.6452 15.8337H18.5692C18.195 15.8337 17.8917 15.5304 17.8917 15.1562C17.8917 14.7821 18.195 14.4787 18.5692 14.4787H19.7249C19.8918 14.4787 20.0284 14.5453 20.1349 14.678C20.2411 14.8109 20.2943 14.976 20.2943 15.1733C20.2943 15.3859 20.2316 15.5491 20.1064 15.6629Z" fill="#CDDD00"/>
<path d="M38.5165 38.0936C38.0544 38.0936 37.6851 38.4849 37.6173 38.9421C37.5285 39.5409 36.8117 39.6879 36.3836 39.2598L34.2572 37.1334C33.8666 36.7429 33.2335 36.7429 32.843 37.1334L32.0613 37.915C31.6708 38.3056 31.6708 38.9387 32.0613 39.3293L34.6122 41.8802C35.0386 42.3066 34.9941 43.0184 34.4542 43.2872C33.9639 43.5312 33.4345 43.7079 32.878 43.8048C32.3339 43.8995 31.8828 44.3382 31.8828 44.8905V45.9959C31.8828 46.5482 32.3324 47.0018 32.8812 46.9403C36.994 46.4793 40.2685 43.2048 40.7296 39.092C40.7911 38.5431 40.3375 38.0936 39.7852 38.0936H38.5165Z" fill="#CDDD00"/>
<path d="M38.8701 31.7793C38.4413 31.7793 38.0938 31.4317 38.0938 31.0029C38.0938 30.5742 37.7462 30.2266 37.3174 30.2266H35.7646C35.3359 30.2266 34.9883 30.5742 34.9883 31.0029C34.9883 31.4317 34.6407 31.7793 34.2119 31.7793H32.5723C32.02 31.7793 31.5723 32.227 31.5723 32.7793V33.8848C31.5723 34.437 32.02 34.8848 32.5723 34.8848H45.8926C46.4449 34.8848 46.8926 34.437 46.8926 33.8848V32.7793C46.8926 32.227 46.4449 31.7793 45.8926 31.7793H38.8701Z" fill="#CDDD00"/>
<path d="M44.6504 36.8516H43.5449C42.9926 36.8516 42.5449 37.2993 42.5449 37.8516V45.8926C42.5449 46.4449 42.9926 46.8926 43.5449 46.8926H44.6504C45.2027 46.8926 45.6504 46.4449 45.6504 45.8926V37.8516C45.6504 37.2993 45.2027 36.8516 44.6504 36.8516Z" fill="#CDDD00"/>
</svg>
