<svg width="62" height="54" viewBox="0 0 62 54" fill="none" xmlns="http://www.w3.org/2000/svg">
<path d="M62 32.4H58.1851C57.7537 25.8656 54.9813 19.7812 50.2657 15.1083C46.3075 11.1858 41.3455 8.62078 35.954 7.64437C36.2709 6.96047 36.4492 6.20062 36.4492 5.4C36.4492 2.4225 34.0046 0 31 0C27.9954 0 25.5508 2.4225 25.5508 5.4C25.5508 6.20062 25.7291 6.96047 26.0456 7.64437C20.6545 8.62078 15.6925 11.1858 11.7338 15.1083C7.01871 19.7812 4.24585 25.8656 3.81493 32.4H0V36H4.44783L8.08064 43.2H24.8469L22.425 50.4H18.2852V54H43.7148V50.4H39.575L37.1531 43.2H53.9194L57.5522 36H62V32.4ZM29.1836 5.4C29.1836 4.40766 29.9986 3.6 31 3.6C32.0014 3.6 32.8164 4.40766 32.8164 5.4C32.8164 6.39234 32.0014 7.2 31 7.2C29.9986 7.2 29.1836 6.39234 29.1836 5.4ZM31 10.8C43.4093 10.8 53.6133 20.3348 54.5442 32.4H7.45578C8.38669 20.3348 18.5907 10.8 31 10.8ZM35.7454 50.4H26.2546L28.6765 43.2H33.3235L35.7454 50.4ZM51.6744 39.6L54.5442 35L8.5092 36H53.4908L51.6744 39.6Z" fill="#CDDD00"/>
</svg>
