<svg width="53" height="53" viewBox="0 0 53 53" fill="none" xmlns="http://www.w3.org/2000/svg">
<path d="M33.125 39.75H16.5631V43.0631H33.125V39.75Z" fill="#CDDD00"/>
<path d="M13.2507 3.31264H39.7504V13.5H43.0625V3.31264C43.0626 1.48499 41.5811 0 39.7504 0H13.2507C11.4213 0 9.93799 1.48499 9.93799 3.31264V13.5H13.2507V3.31264Z" fill="#CDDD00"/>
<path d="M36.4371 33.125H16.5631V36.4376H36.4371V33.125Z" fill="#CDDD00"/>
<path d="M49.6879 13.25H3.31275C1.48329 13.25 0 14.7346 0 16.5623V36.4375C0 38.2681 1.48329 39.7495 3.31275 39.7495H9.93791V49.6873C9.93791 51.5185 11.4212 52.9999 13.2507 52.9999H39.7503C41.581 52.9999 43.0624 51.5185 43.0624 49.6873V39.7495H49.6878C51.5186 39.7495 53 38.2681 53 36.4375V16.5623C53.0001 14.7346 51.5187 13.25 49.6879 13.25ZM39.7503 49.6874H13.2507V29.8122H39.7503V49.6874ZM46.3747 23.1876C44.544 23.1876 43.0625 21.706 43.0625 19.875C43.0625 18.0474 44.544 16.5623 46.3747 16.5623C48.206 16.5623 49.6879 18.0473 49.6879 19.875C49.6879 21.7059 48.2059 23.1876 46.3747 23.1876Z" fill="#CDDD00"/>
</svg>
