<svg width="58" height="53" viewBox="0 0 58 53" fill="none" xmlns="http://www.w3.org/2000/svg">
<path d="M35.5 16.634C36.1667 17.0189 36.1667 17.9811 35.5 18.366L27.25 23.1292C26.5833 23.5141 25.75 23.0329 25.75 22.2631V12.7369C25.75 11.9671 26.5833 11.4859 27.25 11.8708L35.5 16.634Z" fill="#CDDD00"/>
<path d="M50.8463 0H7.15365C3.21553 0 0 3.2589 0 7.27739V35.4681C0 39.4743 3.20349 42.7455 7.15365 42.7455H27.3742V49.6921H17.294C16.3908 49.6921 15.6682 50.4272 15.6682 51.346C15.6682 52.2649 16.3908 53 17.294 53H40.706C41.6092 53 42.3318 52.2649 42.3318 51.346C42.3318 50.4272 41.6092 49.6921 40.706 49.6921H30.6258V42.7455H50.8463C54.7845 42.7455 58 39.4866 58 35.4681V7.27739C58 3.2589 54.7965 0 50.8463 0ZM7.15365 3.30791H50.8584C53.0021 3.30791 54.7604 5.08437 54.7604 7.27739V30.837H3.25166V7.27739C3.25166 5.08437 4.99792 3.30791 7.15365 3.30791ZM50.8463 39.4376H7.15365C5.00997 39.4376 3.25166 37.6611 3.25166 35.4681V34.1449H54.7483V35.4681C54.7483 37.6489 53.0021 39.4376 50.8463 39.4376Z" fill="#CDDD00"/>
</svg>
