<svg width="18" height="54" viewBox="0 0 18 54" fill="none" xmlns="http://www.w3.org/2000/svg">
<path d="M5.53563 27.0002L17.6908 6.1429C17.8969 5.78915 18 5.38206 18 4.92218C18 4.46229 17.897 4.0552 17.6908 3.7022L16.1442 1.04829C15.938 0.694734 15.7008 0.517212 15.4335 0.517212C15.1653 0.517212 14.9282 0.694734 14.7221 1.04829L0.308955 25.7792C0.102805 26.133 0 26.5401 0 27C0 27.46 0.102805 27.8669 0.308955 28.2207L14.7213 52.9516C14.9278 53.306 15.1651 53.4827 15.4331 53.4827C15.7008 53.4827 15.938 53.306 16.1441 52.9516L17.6907 50.2996C17.8968 49.9459 17.9996 49.5386 17.9996 49.0783C17.9996 48.6188 17.8969 48.2119 17.6907 47.8582L5.53563 27.0002Z" fill="white"/>
</svg>
