<svg width="16" height="21" viewBox="0 0 16 21" fill="none" xmlns="http://www.w3.org/2000/svg">
<path d="M15.8044 4.41253L15.5303 4.13338L11.941 0.478293L11.6668 0.199138C11.5428 0.0727759 11.3707 0 11.1947 0H0.875733C0.454045 0 0 0.331655 0 1.05941V14.1207V20.1082V20.2759C0 20.5789 0.299378 20.8744 0.653511 20.9674C0.671289 20.9721 0.688356 20.979 0.706844 20.9826C0.762311 20.9938 0.818845 21 0.875733 21H15.1243C15.1812 21 15.2377 20.9938 15.2932 20.9826C15.3116 20.979 15.3287 20.9721 15.3465 20.9674C15.7006 20.8744 16 20.5789 16 20.2759V20.1082V14.1207V5.061C16 4.78329 15.9673 4.57836 15.8044 4.41253ZM14.7324 4.34483H11.7333V1.29078L14.7324 4.34483ZM0.875733 20.2759C0.850489 20.2759 0.827733 20.2664 0.805333 20.2581C0.749867 20.2313 0.711111 20.1748 0.711111 20.1082V14.8448H15.2889V20.1082C15.2889 20.1748 15.2501 20.231 15.1947 20.2581C15.1723 20.2664 15.1495 20.2759 15.1243 20.2759H0.875733ZM0.711111 14.1207V1.05941C0.711111 0.980845 0.722845 0.724138 0.875733 0.724138H11.0428C11.0311 0.769759 11.0222 0.816828 11.0222 0.865707V5.06897H15.1499C15.1979 5.06897 15.2437 5.05991 15.2885 5.04797C15.2885 5.0534 15.2889 5.05557 15.2889 5.061V14.1207H0.711111Z" fill="#646464"/>
<path d="M5.52608 16.2005C5.40768 16.1016 5.27399 16.027 5.12501 15.9778C4.97603 15.9282 4.82528 15.9036 4.6731 15.9036H3.6427V19.5518H4.22617V18.2349H4.65888C4.84661 18.2349 5.0187 18.207 5.17408 18.1509C5.32946 18.0948 5.46243 18.0155 5.57266 17.9134C5.68288 17.8113 5.76857 17.6849 5.83043 17.5347C5.89194 17.3844 5.92288 17.2172 5.92288 17.0321C5.92288 16.8573 5.88626 16.6998 5.81337 16.5593C5.74048 16.4188 5.64448 16.2997 5.52608 16.2005ZM5.30492 17.4058C5.26901 17.5064 5.22243 17.5847 5.16412 17.6408C5.10581 17.6969 5.04181 17.7374 4.97212 17.7621C4.90243 17.7867 4.83168 17.7994 4.76057 17.7994H4.22581V16.354H4.66314C4.81212 16.354 4.93194 16.3779 5.02297 16.4257C5.11363 16.4735 5.18403 16.5328 5.23452 16.6038C5.28466 16.6748 5.31772 16.749 5.33408 16.8265C5.35008 16.904 5.35826 16.9724 5.35826 17.0318C5.35826 17.1806 5.34048 17.3051 5.30492 17.4058Z" fill="#646464"/>
<path d="M9.05033 16.438C8.89958 16.2765 8.71007 16.1465 8.48144 16.0495C8.25282 15.9524 7.98793 15.9036 7.68678 15.9036H6.60767V19.5518H7.96376C8.00891 19.5518 8.0786 19.546 8.17282 19.5344C8.26669 19.5228 8.37051 19.4967 8.48393 19.4551C8.59736 19.4138 8.71469 19.3519 8.83629 19.2694C8.95789 19.1868 9.06704 19.0738 9.16447 18.9301C9.26189 18.7864 9.34189 18.6082 9.40518 18.3953C9.46847 18.1824 9.50011 17.9257 9.50011 17.6256C9.50011 17.4076 9.46278 17.1954 9.38847 16.9894C9.31344 16.7838 9.20109 16.5998 9.05033 16.438ZM8.62509 18.7299C8.45015 18.9873 8.165 19.1158 7.76962 19.1158H7.19113V16.3536H7.5314C7.81015 16.3536 8.037 16.3909 8.21193 16.4651C8.38687 16.5394 8.52553 16.6368 8.62758 16.7573C8.72962 16.8779 8.79824 17.0122 8.83416 17.1607C8.86971 17.3091 8.88749 17.4594 8.88749 17.6111C8.88749 18.0995 8.80002 18.4728 8.62509 18.7299Z" fill="#646464"/>
<path d="M10.3459 19.5518H10.939V17.9083H12.4363V17.5025H10.939V16.354H12.5867V15.9036H10.3459V19.5518Z" fill="#646464"/>
<path d="M11.3521 8.3135C11.0254 8.3135 10.6243 8.35695 10.1582 8.44312C9.50751 7.73998 8.8284 6.71315 8.34911 5.70515C8.82449 3.66707 8.58662 3.3785 8.48173 3.24236C8.37009 3.09753 8.21258 2.86255 8.03338 2.86255C7.95836 2.86255 7.75356 2.89731 7.67213 2.92482C7.46733 2.99434 7.35711 3.1551 7.26893 3.36474C7.01756 3.96324 7.36245 4.98355 7.71729 5.76996C7.414 6.99846 6.9052 8.46882 6.37045 9.6622C5.02289 10.2908 4.30716 10.9081 4.24244 11.4972C4.21898 11.7115 4.26876 12.0262 4.63889 12.3089C4.74022 12.386 4.85898 12.427 4.98271 12.427C5.29382 12.427 5.60813 12.1844 5.97187 11.6641C6.23711 11.2846 6.52191 10.7672 6.81916 10.1249C7.77133 9.70095 8.94929 9.31788 9.958 9.10317C10.5198 9.65243 11.0229 9.9305 11.4552 9.9305C11.7738 9.9305 12.0469 9.78132 12.2446 9.49927C12.4504 9.20563 12.4974 8.94277 12.3832 8.7172C12.2464 8.44601 11.9089 8.3135 11.3521 8.3135ZM4.99053 11.8158C4.82413 11.6858 4.83373 11.5982 4.83729 11.5652C4.85933 11.3639 5.16902 11.0066 5.92884 10.5717C5.35284 11.655 5.04351 11.7988 4.99053 11.8158ZM7.90609 3.51645C7.92138 3.51138 8.27765 3.91508 7.94022 4.68086C7.4332 4.1526 7.87125 3.52839 7.90609 3.51645ZM7.17116 9.31896C7.53205 8.44312 7.86769 7.47603 8.12191 6.58027C8.5212 7.31093 9.00085 8.01986 9.48085 8.58758C8.72209 8.76898 7.91427 9.02496 7.17116 9.31896ZM11.7582 9.14553C11.6487 9.30158 11.4112 9.3052 11.328 9.3052C11.1384 9.3052 11.0677 9.19043 10.7779 8.96341C11.0168 8.93227 11.2423 8.92431 11.4218 8.92431C11.7379 8.92431 11.7959 8.97174 11.8396 8.99563C11.8318 9.02134 11.8112 9.06986 11.7582 9.14553Z" fill="#646464"/>
</svg>
