<svg width="26" height="36" viewBox="0 0 26 36" fill="none" xmlns="http://www.w3.org/2000/svg">
<path d="M4.82986 12.3987C4.83716 12.3987 4.83716 12.3987 4.84446 12.3987C4.85176 12.3987 4.85176 12.3987 4.85906 12.3987C7.47978 12.3692 7.10018 8.83861 7.10018 8.83861C6.99068 6.47258 5.03426 6.4947 4.84446 6.50207C4.65465 6.4947 2.69093 6.47258 2.58873 8.83861C2.58143 8.83124 2.20183 12.3692 4.82986 12.3987Z" fill="#CDDD00"/>
<path d="M10.3195 8.83117C10.3195 8.83117 9.9399 12.3692 12.5606 12.3913C12.5679 12.3913 12.5679 12.3913 12.5752 12.3913C12.5825 12.3913 12.5825 12.3913 12.5898 12.3913C15.2106 12.3618 14.831 8.83117 14.831 8.83117C14.7215 6.46514 12.765 6.48725 12.5752 6.49462C12.3854 6.49462 10.429 6.47251 10.3195 8.83117Z" fill="#CDDD00"/>
<path d="M18.0503 8.83117C18.0503 8.83117 17.6707 12.3692 20.2915 12.3913C20.2988 12.3913 20.2988 12.3913 20.3061 12.3913C20.3134 12.3913 20.3134 12.3913 20.3207 12.3913C22.9414 12.3618 22.5618 8.83117 22.5618 8.83117C22.4523 6.46514 20.4959 6.48725 20.3061 6.49462C20.1163 6.49462 18.1598 6.47251 18.0503 8.83117Z" fill="#CDDD00"/>
<path d="M24.7664 14.8016C24.5401 14.5731 24.4233 14.4625 24.1678 14.2709C23.1969 13.5485 21.9997 13.0621 21.9997 13.0621L21.0871 15.9662L20.5542 14.4404C21.5106 13.0989 20.4447 13.0547 20.2987 13.0547C20.1527 13.0547 19.0869 13.0915 20.0432 14.4404L19.5103 15.9662L18.5978 13.0621C18.5978 13.0621 17.4079 13.5485 16.4297 14.2709C16.4297 14.2709 16.4297 14.2709 16.4224 14.2709C16.4224 14.2709 16.4224 14.2709 16.4151 14.2709C15.4442 13.5485 14.247 13.0621 14.247 13.0621L13.3345 15.9662L12.8016 14.4404C13.7579 13.0989 12.6921 13.0547 12.5461 13.0547C12.4001 13.0547 11.3342 13.0915 12.2906 14.4404L11.7576 15.9662L10.8451 13.0621C10.8451 13.0621 9.65523 13.5485 8.67702 14.2709C8.67702 14.2709 8.67702 14.2709 8.66972 14.2709C8.66972 14.2709 8.66972 14.2709 8.66242 14.2709C7.69151 13.5485 6.49429 13.0621 6.49429 13.0621L5.58178 15.9662L5.04888 14.4404C6.00519 13.0989 4.93938 13.0547 4.79338 13.0547C4.64737 13.0547 3.58156 13.0915 4.53787 14.4404L4.00497 15.9662L3.09246 13.0621C3.09246 13.0621 1.90255 13.5485 0.924335 14.2709C0.668832 14.4625 0.552031 14.5731 0.325729 14.8016C-0.214477 15.347 0.0118257 18.4943 0.325729 19.6516C0.639632 20.8088 1.55214 22.4598 1.55214 22.4598C1.73464 22.88 1.85145 23.3296 1.89525 23.7866L3.06326 35.3514C3.09976 35.7199 3.40636 36 3.77137 36H4.77878H5.78619C6.15119 36 6.45779 35.7199 6.49429 35.3514L7.66231 23.7866C7.70611 23.3296 7.82291 22.88 8.00541 22.4598C8.00541 22.4598 8.31931 21.8997 8.64052 21.1994C8.96172 21.8997 9.27562 22.4598 9.27562 22.4598C9.45813 22.88 9.57493 23.3296 9.61873 23.7866L10.7867 35.3514C10.8232 35.7199 11.1298 36 11.4948 36H12.5753H13.5827C13.9477 36 14.2543 35.7199 14.2908 35.3514L15.4588 23.7866C15.5026 23.3296 15.6194 22.88 15.8019 22.4598C15.8019 22.4598 16.1158 21.8997 16.437 21.1994C16.7582 21.8997 17.0721 22.4598 17.0721 22.4598C17.2546 22.88 17.3714 23.3296 17.4152 23.7866L18.5832 35.3514C18.6197 35.7199 18.9263 36 19.2913 36H20.2987H21.3062C21.6712 36 21.9778 35.7199 22.0143 35.3514L23.1823 23.7866C23.2261 23.3296 23.3429 22.88 23.5254 22.4598C23.5254 22.4598 24.4379 20.8088 24.7518 19.6516C25.0803 18.4943 25.3066 15.3396 24.7664 14.8016Z" fill="#CDDD00"/>
<path d="M8.72079 5.89762C8.72809 5.89762 8.72809 5.89762 8.73539 5.89762C8.74269 5.89762 8.74269 5.89762 8.74999 5.89762C11.3707 5.86813 10.9911 2.33751 10.9911 2.33751C10.8816 -0.0285148 8.92519 -0.00640251 8.73539 0.000968304C8.54558 -0.00640251 6.58186 -0.0285148 6.47966 2.33751C6.47966 2.33751 6.10006 5.8755 8.72079 5.89762Z" fill="#CDDD00"/>
<path d="M16.4589 5.89762C16.4662 5.89762 16.4662 5.89762 16.4735 5.89762C16.4808 5.89762 16.4808 5.89762 16.4881 5.89762C19.1088 5.86813 18.7292 2.33751 18.7292 2.33751C18.6197 -0.0285148 16.6633 -0.00640251 16.4735 0.000968304C16.2837 -0.00640251 14.32 -0.0285148 14.2178 2.33751C14.2105 2.33751 13.8309 5.8755 16.4589 5.89762Z" fill="#CDDD00"/>
</svg>
