<svg width="23" height="20" viewBox="0 0 23 20" fill="none" xmlns="http://www.w3.org/2000/svg">
<path d="M21.664 16.7337C21.66 15.7752 20.9877 15.7522 20.1845 15.4309L16.4345 13.9289C16.369 13.9034 16.305 13.8762 16.2415 13.8479V13.8464C15.5748 13.5447 14.9862 13.1247 14.7705 12.8294L14.762 12.8202L14.7595 12.8152C14.747 12.7962 14.7337 12.7767 14.7227 12.7579L14.714 12.7424L14.7125 12.7384L14.7048 12.7289C14.605 12.5784 14.504 12.5109 14.4185 12.5399L14.4132 12.5422L14.4108 12.5429L14.4052 12.5454L14.4017 12.5462L14.397 12.5507C14.2958 12.6034 14.3158 12.5454 14.2747 12.4337C14.1733 12.1596 14.0058 11.6376 13.9803 11.5611C13.9413 11.4181 13.8368 11.7866 13.8605 11.3891L13.903 10.6694C13.9722 10.5951 14.028 10.5346 14.066 10.4929C14.3103 10.2134 14.3273 9.47536 14.4495 9.29536C14.572 9.11511 14.8175 9.07636 15.062 8.2386C15.307 7.40008 15.6057 6.20282 15.2907 6.18332C15.2132 6.17807 15.1257 6.22832 15.0352 6.30807C15.0905 6.00032 15.2072 5.30206 15.2335 4.7868C15.2687 4.10804 15.156 2.36727 14.77 1.72951C14.5288 1.33075 14.0417 0.935749 13.5565 0.627745C13.2655 0.442243 12.9755 0.289241 12.7385 0.184989C12.0317 -0.128515 9.8035 0.015487 9.049 0.184989C8.18925 0.377492 7.58675 0.916999 7.20175 1.55501C6.81725 2.19377 6.6465 4.10829 6.68 4.78705C6.69625 5.09155 6.8785 5.60531 6.92475 5.91881C6.951 6.08232 6.97525 6.08357 6.99575 6.20057C6.9635 6.18832 6.9325 6.18157 6.9035 6.18357C6.58825 6.20307 6.88625 7.40033 7.131 8.23884C7.3765 9.07661 7.6205 9.11536 7.7435 9.29561C7.866 9.47561 7.88325 10.2134 8.129 10.4931C8.16775 10.5374 8.22675 10.6021 8.3 10.6799L8.34675 11.2669L8.42925 11.5939C8.3915 11.4999 8.317 11.4394 8.282 11.5619C8.1765 11.8821 8.071 12.2029 7.9655 12.5237C7.9545 12.5082 7.93725 12.4977 7.9175 12.4964C7.81525 12.4064 7.678 12.4847 7.553 12.6929C7.36775 13.0017 6.7545 13.4459 6.04325 13.7669L6.03325 13.8054L6.02325 13.8434L6.0195 13.8587C5.96325 13.8839 5.90725 13.9074 5.85 13.9299L2.10025 15.4314C1.298 15.7527 0.625 15.7757 0.62075 16.7342L0 20H22.5L21.664 16.7337Z" fill="#A4A4A4"/>
</svg>
