<svg width="55" height="51" viewBox="0 0 55 51" fill="none" xmlns="http://www.w3.org/2000/svg">
<path d="M27.163 0C16.6875 0.000731882 7.82469 0.45023 6.39455 1.0533C6.36751 1.06282 6.34047 1.07318 6.31356 1.08453C6.30022 1.09014 6.2875 1.09575 6.2754 1.10148C5.13703 1.58148 4.32288 3.56719 4.32139 5.86726V10.7465H3.08671H0.617342C0.276446 10.7465 0 11.0196 0 11.3564V12.5762V19.895C0 20.2318 0.276446 20.5049 0.617342 20.5049H3.08671C3.42761 20.5049 3.70405 20.2318 3.70405 19.895V13.1861H4.32139V34.5326H12.3468C12.6877 34.5326 12.9642 34.8058 12.9642 35.1425V37.5822C12.9642 37.9189 12.6877 38.1921 12.3468 38.1921H4.32139V42.4614C4.32189 43.3321 4.55709 44.1362 4.93874 44.5715V49.7802C4.93886 50.4539 5.4915 50.9999 6.17342 51H9.87747C10.5594 50.9999 11.112 50.4539 11.1122 49.7802V46.1208H43.2139V49.7802C43.2141 50.4539 43.7667 50.9999 44.4486 51H48.1527C48.8346 50.9999 49.3872 50.4539 49.3874 49.7802V44.5705C49.7687 44.1354 50.0041 43.3317 50.0047 42.4614V38.1921H41.9793C41.6384 38.1921 41.3619 37.9189 41.3619 37.5822V35.1425C41.3619 34.8058 41.6384 34.5326 41.9793 34.5326H50.0047V13.1861H50.622V19.895C50.622 20.2318 50.8985 20.5049 51.2394 20.5049H53.7087C54.0496 20.5049 54.3261 20.2318 54.3261 19.895V12.5762V11.3564C54.3261 11.0196 54.0496 10.7465 53.7087 10.7465H51.2394H50.0047V5.86726C50.0035 3.49437 49.1384 1.4673 47.9549 1.06404C46.6078 0.456207 37.709 0.000731882 27.163 0ZM8.02544 2.20784H46.3006C46.9826 2.20784 47.5353 3.57317 47.5353 5.25735V7.69696C47.5353 8.03375 47.2589 8.30687 46.918 8.30687H7.4081C7.06721 8.30687 6.79076 8.03375 6.79076 7.69696V5.25735C6.79076 3.57317 7.34353 2.20784 8.02544 2.20784ZM6.79076 9.52667H47.5353C48.2172 9.52679 48.7699 10.0728 48.77 10.7465V29.0435C48.7699 29.7172 48.2172 30.2632 47.5353 30.2633H42.6489L41.5659 29.7311L43.3063 29.7428C43.6472 29.7493 43.9288 29.4814 43.9354 29.1447C43.9419 28.8079 43.6708 28.5296 43.3299 28.5232C43.3247 28.523 43.3196 28.523 43.3144 28.523L24.488 28.398C24.1471 28.3915 23.8655 28.6594 23.8589 28.9962C23.8524 29.333 24.1235 29.6112 24.4644 29.6177C24.4696 29.6178 24.4746 29.6178 24.4798 29.6178L38.7556 29.7126L41.5754 31.0982C41.5049 31.1106 41.4335 31.117 41.3619 31.1172H12.9642C12.8045 31.117 12.6465 31.0861 12.4987 31.0264L16.0087 28.8753L31.3058 27.8968C31.6463 27.8794 31.9081 27.5925 31.8904 27.256C31.8732 26.9301 31.5995 26.6753 31.2691 26.6777C31.2548 26.6778 31.2405 26.6785 31.2261 26.6797L11.6528 27.9317C11.3122 27.9475 11.0491 28.2331 11.0651 28.5696C11.0812 28.9062 11.3702 29.1661 11.7109 29.1503C11.7181 29.1499 11.7254 29.1494 11.7327 29.1489L13.3935 29.0427L11.4016 30.2633H6.79076C6.10885 30.2632 5.5562 29.7172 5.55608 29.0435V10.7465C5.55608 10.0728 6.10885 9.52667 6.79076 9.52667Z" fill="#CDDD00"/>
</svg>
