<svg width="18" height="54" viewBox="0 0 18 54" fill="none" xmlns="http://www.w3.org/2000/svg">
<path d="M12.4644 26.9998L0.309172 47.8571C0.10313 48.2108 0 48.6179 0 49.0778C0 49.5377 0.103022 49.9448 0.309172 50.2978L1.85579 52.9517C2.06205 53.3053 2.29918 53.4828 2.56654 53.4828C2.83465 53.4828 3.07179 53.3053 3.27794 52.9517L17.691 28.2208C17.8972 27.867 18 27.4599 18 27C18 26.54 17.8972 26.1331 17.691 25.7793L3.2787 1.04835C3.07222 0.69405 2.83487 0.517273 2.56686 0.517273C2.29918 0.517273 2.06205 0.69405 1.8559 1.04835L0.309282 3.7004C0.103239 4.05414 0.000432968 4.46142 0.000432968 4.92168C0.000432968 5.38119 0.10313 5.7881 0.309282 6.14184L12.4644 26.9998Z" fill="white"/>
</svg>
