<svg width="47" height="51" viewBox="0 0 47 51" fill="none" xmlns="http://www.w3.org/2000/svg">
<path d="M12.6293 15.4942C12.9624 19.8362 14.7021 17.9647 15.061 19.8674C15.6578 23.0302 18.4788 25.3178 20.2349 26.108C21.2594 26.5687 22.3144 26.7999 23.4237 26.8184C23.4276 26.8184 23.4314 26.8189 23.4352 26.8189C23.4391 26.8189 23.4429 26.8193 23.4468 26.8193C24.5559 26.8009 25.6109 26.5688 26.6356 26.108C28.3916 25.3178 31.2127 23.0302 31.8094 19.8674C32.1683 17.9648 33.9081 19.8362 34.2411 15.4942C34.2411 13.7638 33.2913 13.3332 33.2913 13.3332C33.2913 13.3332 33.7741 10.7719 33.9633 8.80103C34.1976 6.34487 32.5189 0 23.5646 0C23.5254 0 23.4892 0.0021193 23.4509 0.00254316C23.4495 0.00254316 23.4483 0.00254316 23.4469 0.0024372C23.443 0.00254316 23.4392 0.00222526 23.4353 0.00222526C23.4315 0.00222526 23.4277 0.0021193 23.4238 0.00201334C23.4224 0.0021193 23.4212 0.00264912 23.4198 0.00264912C23.3815 0.0021193 23.3453 0.000105965 23.3061 0.000105965C14.3519 0.000105965 12.6731 6.34497 12.9074 8.80114C13.0965 10.772 13.5794 13.3333 13.5794 13.3333C13.5794 13.3333 12.6293 13.7638 12.6293 15.4942Z" fill="#CDDD00"/>
<path d="M43.7476 36.809C39.2311 34.5283 32.6848 31.6797 32.3706 31.5791C32.3671 31.5778 32.3645 31.5776 32.361 31.5766C32.1773 31.5116 31.9798 31.4756 31.7735 31.4756C31.0061 31.4756 30.3553 31.9634 30.1138 32.6434C30.1125 32.6426 30.1112 32.642 30.1099 32.6412C28.9442 35.4297 26.8029 40.4003 25.4733 42.7971L25.153 36.0775C25.153 36.0775 27.1498 31.8708 27.3683 31.4854C27.8829 30.5821 27.4195 29.813 26.4549 29.813C25.9764 29.813 24.7794 29.813 23.5804 29.813C23.579 29.813 23.5778 29.813 23.5764 29.813C23.5687 29.813 23.561 29.813 23.5533 29.813C23.5519 29.813 23.5507 29.813 23.5493 29.813C23.5328 29.813 23.5164 29.813 23.4999 29.813C23.4835 29.813 23.4671 29.813 23.4506 29.813C23.4492 29.813 23.448 29.813 23.4466 29.813C23.4389 29.813 23.4312 29.813 23.4235 29.813C23.4221 29.813 23.4208 29.813 23.4195 29.813C22.2206 29.813 21.0237 29.813 20.545 29.813C19.5804 29.813 19.1171 30.5821 19.6316 31.4854C19.8502 31.8708 21.8469 36.0775 21.8469 36.0775L21.5267 42.7971C20.1971 40.4003 18.0558 35.43 16.89 32.6412C16.8888 32.642 16.8875 32.6426 16.8862 32.6434C16.6447 31.9638 15.9939 31.4756 15.2265 31.4756C15.0202 31.4756 14.8227 31.5116 14.639 31.5766C14.6355 31.5778 14.6329 31.5782 14.6294 31.5791C14.3153 31.6797 7.76891 34.5283 3.25243 36.809C1.22413 37.8333 0 39.1072 0 40.4478C0 44.8799 0 50.9998 0 50.9998H47C47 50.9998 47 44.8799 47 40.4478C46.9999 39.1072 45.7759 37.8333 43.7476 36.809Z" fill="#CDDD00"/>
</svg>
